<?xml version="1.0" standalone="no"?>
<!DOCTYPE svg PUBLIC "-//W3C//DTD SVG 20010904//EN"
 "http://www.w3.org/TR/2001/REC-SVG-20010904/DTD/svg10.dtd">
<svg version="1.0" xmlns="http://www.w3.org/2000/svg"
 width="475.000000pt" height="475.000000pt" viewBox="0 0 475.000000 475.000000"
 preserveAspectRatio="xMidYMid meet">
<metadata>
Created by potrace 1.11, written by Peter Selinger 2001-2013
</metadata>
<g transform="translate(0.000000,475.000000) scale(0.100000,-0.100000)"
fill="#000000" stroke="none">
<path d="M508 4298 c-15 -12 -16 -102 -7 -1328 5 -723 10 -1495 11 -1715 l3
-400 75 -7 c104 -11 113 -16 65 -37 -27 -13 -35 -20 -25 -24 8 -3 139 -8 290
-11 174 -4 339 -13 450 -26 235 -27 1568 -194 1800 -225 102 -14 205 -25 230
-25 46 0 100 24 335 149 44 24 126 67 181 97 211 111 269 146 282 171 6 11 6
285 0 678 -6 404 -5 1055 0 1680 6 561 9 1020 8 1021 0 0 -116 -5 -256 -12
-452 -22 -859 -27 -1265 -15 -214 6 -671 16 -1015 21 -344 5 -742 12 -885 16
-210 5 -263 3 -277 -8z"/>
</g>
</svg>
